<svg id="Layer_1" enable-background="new 0 0 512 512" height="512" viewBox="0 0 512 512" width="512" xmlns="http://www.w3.org/2000/svg"><g><g><g><path d="m432 432h-352c-17.673 0-32-14.327-32-32v-224c0-17.673 14.327-32 32-32h352c17.673 0 32 14.327 32 32v224c0 17.673-14.327 32-32 32z" fill="#23aae6"/></g><g><path d="m400 432h-320c-17.673 0-32-14.327-32-32v-224c0-17.673 14.327-32 32-32h320c17.673 0 32 14.327 32 32v224c0 17.673-14.327 32-32 32z" fill="#5ad7ff"/></g><g><path d="m392 400h-304c-4.418 0-8-3.582-8-8v-208c0-4.418 3.582-8 8-8h304c4.418 0 8 3.582 8 8v208c0 4.418-3.582 8-8 8z" fill="#463c4b"/></g></g><g><g><path d="m256 400h-32c-70.692 0-128-57.307-128-128 0-70.692 57.307-128 128-128h32c70.692 0 128 57.307 128 128 0 70.693-57.307 128-128 128z" fill="#f06423"/></g><g><circle cx="224" cy="272" fill="#faa019" r="128"/></g><g><circle cx="224" cy="272" fill="#f06423" r="96"/></g><path d="m256 256c4.418 0 8-3.582 8-8v-1.538c0-16.797-13.665-30.462-30.462-30.462h-1.538v-16c0-4.418-3.582-8-8-8s-8 3.582-8 8v16h-1.538c-16.797 0-30.462 13.665-30.462 30.462 0 14.004 9.488 26.157 23.074 29.553l29.972 7.493c6.449 1.612 10.954 7.382 10.954 14.03 0 7.974-6.487 14.462-14.462 14.462h-19.076c-7.975 0-14.462-6.488-14.462-14.462v-1.538c0-4.418-3.582-8-8-8s-8 3.582-8 8v1.538c0 16.797 13.665 30.462 30.462 30.462h1.538v16c0 4.418 3.582 8 8 8s8-3.582 8-8v-16h1.538c16.797 0 30.462-13.665 30.462-30.462 0-14.004-9.488-26.157-23.074-29.553l-29.972-7.493c-6.449-1.612-10.954-7.382-10.954-14.03 0-7.974 6.487-14.462 14.462-14.462h19.076c7.975 0 14.462 6.488 14.462 14.462v1.538c0 4.418 3.582 8 8 8z" fill="#faa019"/></g><g><g><g><path d="m307.882 140.118c-4.095 0-8.189-1.562-11.313-4.687-15.111-15.11-35.201-23.431-56.569-23.431s-41.458 8.321-56.568 23.431c-6.248 6.249-16.379 6.249-22.627 0-6.249-6.248-6.249-16.379 0-22.627 21.153-21.154 49.279-32.804 79.195-32.804s58.042 11.65 79.195 32.804c6.249 6.248 6.249 16.379 0 22.627-3.124 3.125-7.218 4.687-11.313 4.687z" fill="#e1322d"/></g><g><path d="m353.137 94.863c-4.096 0-8.189-1.562-11.313-4.687-27.199-27.197-63.36-42.176-101.824-42.176s-74.625 14.979-101.823 42.176c-6.248 6.249-16.379 6.249-22.627 0-6.249-6.249-6.249-16.379 0-22.627 33.241-33.242 77.438-51.549 124.45-51.549s91.209 18.307 124.45 51.549c6.249 6.249 6.249 16.379 0 22.627-3.124 3.124-7.219 4.686-11.313 4.687z" fill="#e1322d"/></g></g><g><path d="m172.118 140.118c-4.095 0-8.189-1.562-11.313-4.687-6.249-6.248-6.249-16.379 0-22.627 21.153-21.154 49.279-32.804 79.195-32.804 8.837 0 16 7.164 16 16s-7.163 16-16 16c-21.368 0-41.458 8.321-56.568 23.431-3.124 3.125-7.219 4.687-11.314 4.687z" fill="#f04b37"/></g><g><path d="m126.863 94.863c-4.095 0-8.189-1.562-11.313-4.686-6.249-6.249-6.249-16.379 0-22.627 33.241-33.243 77.438-51.55 124.45-51.55 8.837 0 16 7.164 16 16s-7.163 16-16 16c-38.464 0-74.625 14.979-101.823 42.176-3.124 3.125-7.219 4.687-11.314 4.687z" fill="#f04b37"/></g></g><g><g><path d="m216 432h72v32h-72z" fill="#463c4b"/></g><g><path d="m216 448h48v16h-48z" fill="#555a6e"/></g><g><path d="m360 496h-216c-4.418 0-8-3.582-8-8v-8c0-8.837 7.163-16 16-16h200c8.837 0 16 7.163 16 16v8c0 4.418-3.582 8-8 8z" fill="#555a6e"/></g><g><path d="m360 496h-32c-4.418 0-8-3.582-8-8v-8c0-8.837 7.163-16 16-16h16c8.837 0 16 7.163 16 16v8c0 4.418-3.582 8-8 8z" fill="#463c4b"/></g></g></g></svg>