<svg id="Capa_1" enable-background="new 0 0 512 512" height="512" viewBox="0 0 512 512" width="512" xmlns="http://www.w3.org/2000/svg"><g><path d="m136.956 390.783h151.757v80.924h-151.757z" fill="#26457d"/><path d="m362.85 408.591h-300.031c-34.694 0-62.819-28.124-62.819-62.818v-211.945c0-34.694 28.125-62.819 62.819-62.819h300.031c34.694 0 62.819 28.125 62.819 62.819v211.945c0 34.694-28.125 62.818-62.819 62.818z" fill="#30579d"/><path d="m83.373 408.6h-20.553c-34.696 0-62.82-28.134-62.82-62.821v-211.949c0-34.697 28.124-62.82 62.82-62.82h20.552c-34.696 0-62.82 28.124-62.82 62.82v211.949c0 34.687 28.124 62.821 62.821 62.821z" fill="#26457d"/><path d="m62.819 373.666c-15.38 0-27.894-12.513-27.894-27.894v-211.944c0-15.38 12.513-27.894 27.894-27.894h300.031c15.38 0 27.894 12.513 27.894 27.894v211.945c0 15.38-12.513 27.894-27.894 27.894h-300.031z" fill="#dee8fd"/><path d="m308.469 500.777h-191.269c-13.911 0-25.187-11.277-25.187-25.187 0-13.911 11.277-25.187 25.187-25.187h191.268c13.911 0 25.187 11.277 25.187 25.187.001 13.91-11.276 25.187-25.186 25.187z" fill="#30579d"/><path d="m179.268 500.782h-62.074c-13.912 0-25.181-11.281-25.181-25.193 0-6.962 2.817-13.248 7.369-17.812 4.564-4.563 10.862-7.381 17.812-7.381h62.074c-6.95 0-13.26 2.817-17.812 7.381-4.564 4.563-7.381 10.85-7.381 17.812 0 13.912 11.281 25.193 25.193 25.193z" fill="#26457d"/><path d="m512 59.842v196.363c0 26.857-21.768 48.635-48.625 48.635h-306.911c-26.857 0-48.635-21.778-48.635-48.635v-196.363c0-26.857 21.778-48.624 48.635-48.624h306.911c26.857 0 48.625 21.768 48.625 48.624z" fill="#e28086"/><path d="m177.016 304.84h-20.552c-26.857 0-48.635-21.778-48.635-48.635v-196.363c0-26.857 21.778-48.624 48.635-48.624h20.552c-26.857 0-48.635 21.768-48.635 48.624v196.363c0 26.857 21.778 48.635 48.635 48.635z" fill="#dd636e"/><g><circle cx="426.06" cy="336.689" fill="#f6de81" r="85.94"/><g fill="#f2ce6b"><path d="m436.39 422.008c-3.389.412-6.84.618-10.333.618-47.46 0-85.938-38.477-85.938-85.938s38.477-85.938 85.938-85.938c3.492 0 6.943.206 10.333.618-42.598 5.099-75.615 41.352-75.615 85.32s33.017 80.221 75.615 85.32z"/><path d="m436.11 328.988c-6.715-2.374-14.14-5.239-18.286-8.491-1.233-.967-1.76-3.216-1.312-5.596.226-1.198 1.28-5.202 5.358-6.431 7.762-2.338 12.856 1.643 13.41 2.106 3.281 2.728 8.151 2.282 10.881-.999 2.729-3.28 2.281-8.152-.999-10.881-1.174-.976-5.405-4.186-11.836-5.663v-2.791c0-4.267-3.459-7.726-7.726-7.726s-7.726 3.459-7.726 7.726v3.305c-.154.044-.306.082-.462.129-8.257 2.487-14.421 9.524-16.086 18.365-1.535 8.145 1.132 16.045 6.96 20.617 4.759 3.733 11.328 6.891 22.673 10.901 7.332 2.592 7.175 8.518 6.767 10.946-.832 4.952-4.998 10.303-12.177 10.351-7.132.045-9.35-.304-14.816-3.88-3.571-2.336-8.36-1.336-10.696 2.236-2.336 3.571-1.335 8.36 2.236 10.696 5.92 3.872 10.309 5.476 15.601 6.078v3.152c0 4.267 3.459 7.726 7.726 7.726s7.726-3.459 7.726-7.726v-3.921c11.005-3.159 18.052-12.718 19.638-22.151 2.101-12.489-4.673-23.772-16.854-28.078z"/></g></g><path d="m359.244 138.009-54.938-31.718c-15.411-8.898-34.675 2.224-34.675 20.02v63.436c0 17.795 19.264 28.917 34.675 20.02l54.938-31.718c15.411-8.898 15.411-31.142 0-40.04z" fill="#f6f9f9"/></g></svg>